# xmcd
#
# Track frame offsets: 
#        150
#        11847
#        21510
#        43642
#
# Disc length: 708 seconds
#
# Revision: 0
# Processed by: cddbd v1.5PL3 Copyright (c) Steve Scherf et al.
# Submitted via: ExactAudioCopy v0.95a3
#
DISCID=2d02c204
DTITLE=GOOD 4 NOTHING - Let's Make The Future
DYEAR=1900
DGENRE=Rock
TTITLE0=Decide
TTITLE1=Let's Make The Future
TTITLE2=Passage Of Time
TTITLE3=Hidden Track
EXTD=
EXTT0=
EXTT1=
EXTT2=
EXTT3=
PLAYORDER=
